PathFileType	4	(X/Y/Z)	s10c0001.trc
DataRate	CameraRate	NumFrames	NumMarkers	Units	OrigDataRate	OrigDataStartFrame	OrigNumFrames
200	200	6	49	mm	200	250	2000
Frame#	Time	racr			lacr			c7			jug			rlel			rdr			llel			ldr			s2			lic			ric			lasi			rasi			rpsi			lpsi			rgt			lgt			rth1			rth2			rth3			rth4			rlfc			rmfc			rsh1			rsh2			rsh3			rsh4			rlmal			rmmal			rcal			rtoe			rmt5			rmt1			lth1			lth2			lth4			lth3			llfc			lmfc			llmal			lmmal			lcal			lmt1			lmt5			lsh1			lsh2			lsh3			lsh4			ltoe			
		X1	Y1	Z1	X2	Y2	Z2	X3	Y3	Z3	X4	Y4	Z4	X5	Y5	Z5	X6	Y6	Z6	X7	Y7	Z7	X8	Y8	Z8	X9	Y9	Z9	X10	Y10	Z10	X11	Y11	Z11	X12	Y12	Z12	X13	Y13	Z13	X14	Y14	Z14	X15	Y15	Z15	X16	Y16	Z16	X17	Y17	Z17	X18	Y18	Z18	X19	Y19	Z19	X20	Y20	Z20	X21	Y21	Z21	X22	Y22	Z22	X23	Y23	Z23	X24	Y24	Z24	X25	Y25	Z25	X26	Y26	Z26	X27	Y27	Z27	X28	Y28	Z28	X29	Y29	Z29	X30	Y30	Z30	X31	Y31	Z31	X32	Y32	Z32	X33	Y33	Z33	X34	Y34	Z34	X35	Y35	Z35	X36	Y36	Z36	X37	Y37	Z37	X38	Y38	Z38	X39	Y39	Z39	X40	Y40	Z40	X41	Y41	Z41	X42	Y42	Z42	X43	Y43	Z43	X44	Y44	Z44	X45	Y45	Z45	X46	Y46	Z46	X47	Y47	Z47	X48	Y48	Z48	X49	Y49	Z49	
250	1.2500	464.738129	1376.935547	683.794983	483.622375	1386.733643	305.396057	433.395905	1426.586182	485.473511	564.537781	1373.201294	501.973083	456.563660	1119.067139	814.057861	477.537384	906.105225	925.157959	481.171417	1107.903198	195.959122	534.490967	904.360596	93.250931	387.408722	930.668091	496.420563	534.185547	993.411804	350.207855	537.933044	1001.588867	649.417908	597.860535	918.372559	383.001007	582.106445	907.599915	638.976074	406.576569	972.381897	558.823792	406.758698	983.920349	445.581512	465.128906	853.757446	684.269348	471.827698	854.457092	308.595947	484.719971	729.202759	714.900818	507.153839	643.321045	700.470337	485.053345	561.436707	691.906799	543.920410	645.981323	691.848206	493.869751	459.324860	675.068604	481.793121	441.139557	562.418701	447.944214	360.137177	716.895569	468.972595	273.236664	714.727173	444.251190	190.657501	716.746887	500.674347	274.196350	691.575317	454.075714	84.998604	709.940186	483.540649	95.899017	630.073853	420.205109	50.417294	655.049316	651.986206	85.085518	711.270508	566.098083	42.144608	755.880493	609.718628	46.714817	658.381836	493.696686	746.157288	282.977173	515.416199	664.989563	292.490021	550.090271	666.156677	304.952393	494.293518	577.851624	301.157990	495.543854	472.709961	315.084290	491.412811	454.737579	425.574921	450.751923	103.900291	284.020508	469.854675	100.979210	362.289795	411.036316	58.727230	327.088470	612.113281	47.352459	347.315735	579.643555	46.094715	245.165237	446.232239	364.330963	269.916412	472.473114	281.451019	275.797058	451.920532	194.320694	273.348389	501.480774	283.082367	301.584839	653.374878	92.346344	295.253021	
251	1.2550	464.734833	1376.948364	683.802795	483.635681	1386.735107	305.408539	433.402832	1426.591064	485.479462	564.526611	1373.209229	501.996887	456.577057	1119.083496	814.071228	477.546448	906.124695	925.175293	481.194733	1107.890869	195.955521	534.498169	904.359497	93.238190	387.413635	930.682373	496.421967	534.198425	993.421265	350.210083	537.999512	1001.584351	649.428528	597.873047	918.374695	383.010223	582.116211	907.594604	638.976440	406.614838	972.384644	558.824097	406.771820	983.914062	445.566925	465.133026	853.784668	684.271301	471.831787	854.470032	308.604095	484.721558	729.203430	714.896484	507.189789	643.328186	700.483643	485.057312	561.452576	691.907654	543.939453	645.995911	691.860596	493.879395	459.315704	675.065613	481.803589	441.148682	562.424988	447.939545	360.154755	716.900269	468.972961	273.223053	714.734924	444.273926	190.635773	716.728943	500.665131	274.191193	691.567932	454.109375	84.996864	709.945312	483.521637	95.883499	630.073486	420.246643	50.383175	655.045166	651.994385	85.088051	711.276306	566.104370	42.152096	755.876038	609.702393	46.711430	658.384216	493.694275	746.167114	282.959015	515.380005	665.026794	292.463806	550.092529	666.151245	304.959961	494.299255	577.870056	301.148254	495.522522	472.704895	315.097656	491.419037	454.749268	425.579712	450.761444	103.890129	284.026123	469.860168	101.002426	362.308075	411.041901	58.732162	327.092316	612.122803	47.349163	347.313995	579.624451	46.105713	245.181061	446.239807	364.321259	269.911011	472.454712	281.449585	275.793182	451.895477	194.317322	273.339569	501.464844	283.087921	301.572479	653.391907	92.353607	295.247467	
252	1.2600	464.738312	1376.957642	683.810791	483.673676	1386.725830	305.417572	433.417572	1426.602661	485.520355	564.522766	1373.194458	501.995453	456.552368	1119.084351	814.083435	477.547729	906.140442	925.202393	481.222931	1107.913086	195.957672	534.501465	904.365295	93.223877	387.422089	930.682678	496.409454	534.228577	993.420105	350.209839	537.989685	1001.595520	649.445435	597.885681	918.371155	383.003082	582.126953	907.598572	638.984558	406.654022	972.400879	558.820862	406.792664	983.931641	445.578064	465.184814	853.789307	684.273132	471.840942	854.462891	308.593323	484.726898	729.214417	714.910400	507.174286	643.343018	700.478760	485.051514	561.447083	691.913147	543.958008	646.012024	691.876465	493.878662	459.322571	675.072266	481.818573	441.158417	562.432739	447.950562	360.160706	716.901062	468.980225	273.227264	714.725098	444.279175	190.612213	716.732483	500.666290	274.192993	691.557861	454.124481	84.994232	709.945862	483.522308	95.879669	630.079590	420.289459	50.350117	655.067871	651.996155	85.084709	711.296143	566.151978	42.158737	755.880920	609.713623	46.715454	658.387878	493.703491	746.165710	282.968506	515.419250	665.011719	292.505096	550.090271	666.156494	304.952332	494.213501	577.851196	301.116577	495.541138	472.708160	315.098450	491.436768	454.760498	425.587189	450.780243	103.918274	284.024109	469.886780	101.016655	362.302643	411.043610	58.734943	327.100220	612.149597	47.382248	347.326630	579.624634	46.106705	245.188049	446.234711	364.341248	269.915649	472.474304	281.458221	275.784027	451.900177	194.306671	273.327698	501.473785	283.093811	301.581726	653.401306	92.362961	295.258820	
253	1.2650	464.744446	1376.969360	683.823364	483.689362	1386.741699	305.424347	433.452667	1426.618286	485.500000	564.529663	1373.193359	502.003113	456.619171	1119.163818	814.180176	477.560028	906.166260	925.247986	481.219482	1107.926514	195.936691	534.519958	904.377502	93.222305	387.426849	930.687195	496.411072	534.228271	993.423035	350.219238	538.012756	1001.605408	649.456787	597.883179	918.370544	383.009644	582.132324	907.592163	638.989929	406.691406	972.390198	558.824768	406.814270	983.927246	445.574249	465.176605	853.796265	684.275452	471.853363	854.470093	308.598297	484.747711	729.221436	714.921753	507.186615	643.354553	700.490234	485.069305	561.459290	691.915710	543.979797	646.026489	691.890320	493.909668	459.334869	675.073486	481.837738	441.168091	562.441528	447.960876	360.157898	716.902832	468.973389	273.249542	714.725220	444.290619	190.628403	716.725647	500.690613	274.197266	691.570557	454.137268	85.008438	709.955872	483.531708	95.874641	630.065308	420.149323	50.558083	654.967529	652.004883	85.087029	711.288818	566.172241	42.191620	755.883972	609.717041	46.705711	658.395142	493.725525	746.160645	282.966919	515.366577	665.044189	292.415863	550.090271	666.156372	304.952301	494.306122	577.867981	301.163330	495.559052	472.723907	315.090240	491.434479	454.769806	425.589111	450.790802	103.926979	284.015015	469.915955	101.021759	362.306580	411.053864	58.742821	327.100220	612.152527	47.383621	347.338898	579.627014	46.106106	245.182831	446.239655	364.337006	269.907715	472.467438	281.467102	275.781982	451.876007	194.318268	273.326904	501.480164	283.081848	301.584686	653.398315	92.359299	295.260803	
254	1.2700	464.747162	1376.968262	683.815491	483.683411	1386.727051	305.415680	433.457367	1426.644409	485.504333	564.527405	1373.192139	502.012207	456.480957	1119.086670	814.078674	477.548340	906.199158	925.281616	481.259857	1107.932373	195.932800	534.518066	904.383850	93.203072	387.438690	930.692688	496.437714	534.214661	993.424683	350.212006	538.035339	1001.592957	649.462708	597.895142	918.379333	383.000641	582.126831	907.605530	638.994202	406.694946	972.444092	558.810547	406.813599	983.929077	445.574249	465.165863	853.796326	684.273132	471.870667	854.463928	308.585968	484.748230	729.220886	714.913757	507.203217	643.366760	700.491821	485.084351	561.445679	691.922119	543.991516	646.031738	691.879883	493.920563	459.347961	675.080261	481.860779	441.176941	562.450989	447.981903	360.151123	716.903503	468.990784	273.241669	714.733521	444.295135	190.631073	716.732666	500.665771	274.195251	691.550354	454.149933	85.005646	709.952576	483.536163	95.881088	630.062378	420.168549	50.578072	654.963745	652.007141	85.096153	711.277954	566.233521	42.200405	755.869751	609.702271	46.722977	658.371460	493.715637	746.162354	282.953278	515.417114	665.016785	292.497528	550.078247	666.167236	304.910645	494.306213	577.866455	301.162506	495.538818	472.706268	315.099792	491.445648	454.765106	425.597565	450.810181	103.932983	284.012573	469.919128	101.037834	362.304382	411.055725	58.746124	327.107239	612.183411	47.422932	347.318573	579.626526	46.106915	245.181625	446.215332	364.345062	269.907776	472.444763	281.456726	275.771362	451.901581	194.330887	273.321320	501.472839	283.100739	301.561798	653.421814	92.365150	295.256592	
255	1.2750	464.738159	1376.970093	683.818298	483.692413	1386.725464	305.427185	433.459015	1426.634155	485.516693	564.536438	1373.184326	502.020386	456.565369	1119.188721	814.192688	477.536774	906.219482	925.312195	481.273529	1107.944580	195.921417	534.524475	904.379211	93.207207	387.444916	930.705933	496.425354	534.230225	993.432556	350.223663	538.037476	1001.593201	649.461426	597.883362	918.376404	383.023926	582.135315	907.596619	639.002441	406.691650	972.426636	558.818054	406.822083	983.934326	445.564209	465.179047	853.794739	684.271179	471.877045	854.469421	308.599548	484.746613	729.228271	714.919678	507.196808	643.305664	700.515320	485.083130	561.463989	691.911560	544.014404	646.039978	691.896179	493.917603	459.346649	675.078430	481.887390	441.184296	562.460693	447.975159	360.157166	716.900940	468.973694	273.248169	714.723145	444.281738	190.633789	716.737000	500.672302	274.183655	691.550659	454.151489	85.007965	709.962036	483.543274	95.895554	630.062805	420.197052	50.526028	655.010071	652.007996	85.091309	711.297668	566.216492	42.206039	755.870178	609.715271	46.712296	658.386841	493.727051	746.157166	282.952271	515.389893	665.045959	292.399811	550.115845	666.154602	304.943787	494.306458	577.856201	301.145508	495.524994	472.695740	315.094269	491.470093	454.782532	425.593475	450.807709	103.912292	284.008301	469.933685	101.029716	362.298401	411.055603	58.742771	327.094421	612.180908	47.416634	347.320343	579.623840	46.112247	245.174896	446.209076	364.339172	269.908264	472.464233	281.463776	275.779449	451.891602	194.317474	273.303192	501.449005	283.098572	301.553864	653.402344	92.364944	295.256805	
